<svg width="71.874023" height="41.874023" viewBox="0 0 71.874 41.874" fill="none" xmlns="http://www.w3.org/2000/svg" xmlns:xlink="http://www.w3.org/1999/xlink">
	<desc>
			Created with Pixso.
	</desc>
	<defs>
		<filter id="filter_2_5345_dd" x="0.000000" y="0.000000" width="71.874023" height="41.874023" filterUnits="userSpaceOnUse" color-interpolation-filters="sRGB">
			<feFlood flood-opacity="0" result="BackgroundImageFix"/>
			<feColorMatrix in="SourceAlpha" type="matrix" values="0 0 0 0 0 0 0 0 0 0 0 0 0 0 0 0 0 0 127 0" result="hardAlpha"/>
			<feOffset dx="0" dy="2.2883"/>
			<feGaussianBlur stdDeviation="2.47899"/>
			<feComposite in2="hardAlpha" operator="out" k2="-1" k3="1"/>
			<feColorMatrix type="matrix" values="0 0 0 0 0 0 0 0 0 0 0 0 0 0 0 0 0 0 0.051 0"/>
			<feBlend mode="normal" in2="BackgroundImageFix" result="effect_dropShadow_1"/>
			<feBlend mode="normal" in="SourceGraphic" in2="effect_dropShadow_1" result="shape"/>
		</filter>
		<clipPath id="clip2_5352">
			<rect id="Payme 1" width="39.541862" height="11.629960" transform="translate(16.041016 13.160400)" fill="white" fill-opacity="0"/>
		</clipPath>
	</defs>
	<g filter="url(#filter_2_5345_dd)">
		<rect id="Rectangle 240" x="7.723145" y="5.434814" rx="4.000000" width="56.427963" height="26.427835" fill="#FFFFFF" fill-opacity="1.000000"/>
	</g>
	<rect id="Rectangle 240" x="7.723145" y="5.434814" rx="4.000000" width="56.427963" height="26.427835" stroke="#EFEFEF" stroke-opacity="1.000000" stroke-width="0.572076"/>
	<rect id="Payme 1" width="39.541862" height="11.629960" transform="translate(16.041016 13.160400)" fill="#FFFFFF" fill-opacity="0"/>
	<g clip-path="url(#clip2_5352)">
		<path id="path2" d="M22.5718 14.342C22.4331 14.1174 22.2544 13.9229 22.043 13.7676C21.8281 13.6208 21.5942 13.5056 21.3467 13.4277C21.0786 13.3396 20.8013 13.281 20.5195 13.2527C20.1899 13.2214 19.8608 13.2048 19.5303 13.2063L16.6685 13.2063C16.3882 13.1812 16.1426 13.3918 16.1245 13.6733C16.1245 13.6733 16.1245 13.6897 16.1245 13.6985L16.1245 18.3625C16.521 19.2166 17.1792 19.9211 18.0054 20.373L18.0054 19.4365C17.9785 19.1328 18.2021 18.865 18.5059 18.8396L19.3643 18.8396C20.5342 18.8396 21.4287 18.5928 22.0454 18.1008C22.6616 17.6086 22.9741 16.8804 22.9829 15.9121C22.9844 15.6343 22.9517 15.356 22.8862 15.0852C22.8208 14.822 22.7148 14.572 22.5718 14.342ZM20.895 16.7395C20.7954 16.9119 20.646 17.0508 20.4688 17.1387C20.2754 17.2317 20.0664 17.2871 19.853 17.3018C19.6191 17.3318 19.3823 17.3467 19.147 17.3452L18.3228 17.3452C18.1245 17.3452 18.0024 17.1855 18.0024 16.9487L18.0024 15.0254C17.9888 14.8459 18.144 14.6992 18.3228 14.7202L19.147 14.7202C19.4136 14.7202 19.6655 14.7278 19.9009 14.7444C20.1128 14.7532 20.3198 14.8042 20.5107 14.8938C20.688 14.9714 20.8354 15.1045 20.9321 15.272C21.0415 15.4963 21.0918 15.7466 21.0786 15.9961C21.083 16.2549 21.02 16.5107 20.895 16.7368L20.895 16.7395ZM18.0063 20.6543C17.3018 20.3984 16.6592 19.9932 16.1245 19.4651L16.1245 21.719C16.0986 21.9001 16.2285 22.0664 16.4106 22.0842L17.7041 22.0842C18.0469 22.0842 18.0063 21.7163 18.0063 21.7163L18.0063 20.6543ZM35.7827 15.6626L34.668 15.6626C34.4473 15.6477 34.2495 15.7959 34.1987 16.0095L32.9019 19.5952C32.9019 19.5952 31.7568 16.3298 31.6709 16.0769C31.6216 15.8362 31.4131 15.6626 31.1689 15.6597L30.1401 15.6597C29.7734 15.6597 29.7734 15.9468 29.8228 16.0588C29.8716 16.1711 31.2759 20.0364 31.8257 21.5159C31.9126 21.6985 31.9731 21.8914 32.0063 22.0901C31.9702 22.2861 31.8975 22.4746 31.7881 22.6423C31.7466 22.7124 31.6992 22.7798 31.6455 22.8425C32.7051 22.5271 33.9351 21.3752 34.5532 20.1321C35.1763 18.4089 35.9976 16.1113 36.0347 15.9932C36.0747 15.8123 36.0747 15.6626 35.7827 15.6626ZM30.811 23.1926C30.7139 23.1912 30.6187 23.1824 30.5244 23.1699C30.4067 23.1523 30.1831 23.1699 30.1831 23.3706L30.1831 24.2322C30.1831 24.5627 30.3442 24.5869 30.4263 24.6091C30.6919 24.6677 30.9629 24.6958 31.2339 24.6946C31.5542 24.7034 31.8716 24.6375 32.1641 24.5029C32.4292 24.3682 32.666 24.1799 32.8584 23.9509C33.0776 23.7012 33.2627 23.4231 33.4087 23.1238C33.5669 22.8064 33.7173 22.4551 33.8604 22.0706L34.0273 21.613C33.6948 21.9434 32.23 23.3301 30.811 23.1926ZM29.1221 16.6931C29.061 16.5479 28.9775 16.4136 28.8765 16.2937C28.772 16.1846 28.6543 16.0872 28.5264 16.0066C28.3872 15.9121 28.2402 15.8313 28.0864 15.7659C27.9282 15.7043 27.7671 15.6565 27.6021 15.6194C27.4146 15.5771 27.2222 15.5503 27.0298 15.5369C26.8242 15.5159 26.5928 15.5042 26.3379 15.5042C24.6318 15.5042 23.6616 16.0439 23.4243 17.1238C23.3809 17.2961 23.5005 17.4651 23.6763 17.48L24.7271 17.48C25.0132 17.48 25.0132 17.3918 25.1221 17.145C25.1694 17.0105 25.2549 16.8921 25.3677 16.8054C25.6362 16.6318 25.9536 16.5496 26.271 16.5735C26.5693 16.542 26.8672 16.6169 27.1157 16.783C27.3052 16.9612 27.417 17.2061 27.4277 17.4666C27.4277 17.8228 27.3188 18.0574 26.8774 18.0574C25.8345 18.0198 24.7124 18.1382 24.0801 18.5032C23.4448 18.8923 23.0684 19.5908 23.0894 20.3354C23.083 20.6196 23.1396 20.9038 23.2588 21.1626C23.3691 21.3872 23.5317 21.5845 23.7295 21.7371C23.9399 21.9077 24.1816 22.0349 24.4409 22.1096C24.7329 22.1904 25.0352 22.2292 25.3379 22.2249C25.7466 22.2322 26.1533 22.1741 26.5435 22.0527C26.8882 21.9106 27.2144 21.7266 27.5137 21.5039L27.5137 21.7056C27.5137 21.9031 27.5737 22.0813 27.7998 22.0813L29.0161 22.0813C29.2622 22.0813 29.3188 21.9062 29.3188 21.6877L29.3188 17.9287C29.3208 17.6941 29.3042 17.4604 29.2715 17.2273C29.2432 17.0444 29.1938 16.8652 29.1221 16.6931ZM27.459 20.3865C27.459 20.3865 27.1445 21.0474 26.0283 21.0474C25.7612 21.0598 25.4961 20.9861 25.2725 20.8384C25.0728 20.6824 24.9658 20.4358 24.9863 20.1831C24.9609 19.8403 25.1489 19.5188 25.459 19.3735C25.9102 19.1985 26.3916 19.1179 26.8765 19.1343C27.1909 19.0879 27.4722 19.3335 27.4707 19.6521L27.459 20.3865Z" fill="#333333" fill-opacity="1.000000" fill-rule="evenodd"/>
		<path id="path4" d="M55.2715 17.969C55.5591 18.4329 55.5591 19.021 55.2715 19.4858C54.9854 19.9211 53.4253 21.5935 52.9106 22.1309C52.4634 22.5957 51.8599 23.0669 51.2627 23.0669L38.874 23.0669C37.1973 23.0669 37.0977 22.4927 37.0977 21.2122L37.0977 15.9873C37.0977 14.6753 37.4834 14.2925 38.6313 14.2925L51.291 14.2925C51.8828 14.2925 52.4131 14.5977 53.0078 15.2124C53.5278 15.7373 55.0645 17.6582 55.2715 17.969Z" fill="#33CCCC" fill-opacity="1.000000" fill-rule="evenodd"/>
		<path id="path6" d="M52.8154 19.9453C52.4399 20.9607 51.4502 21.613 50.3726 21.5564C48.7241 21.5564 47.624 20.4297 47.624 18.741C47.624 17.0522 48.7686 15.8689 50.3145 15.8689C51.8599 15.8689 52.8901 16.9431 52.9556 18.675C52.9556 18.8962 52.9019 19.0925 52.6245 19.0925L49.1265 19.0925C49.1504 20.02 49.5933 20.5286 50.3828 20.5286C50.8125 20.5388 51.207 20.2979 51.3965 19.9138C51.4707 19.8044 51.5947 19.7415 51.7256 19.7429L52.6279 19.7429C52.7422 19.7385 52.8335 19.8418 52.8125 19.9556L52.8154 19.9453ZM39.9102 16.3115L39.9102 16.2803C39.9102 16.1113 39.9102 15.9468 39.624 15.9468L38.585 15.9468C38.3418 15.9468 38.3301 16.0784 38.3301 16.2864L38.3301 17.6641C38.7397 17.0923 39.2827 16.6274 39.9102 16.3115ZM46.8672 21.2974L46.8672 17.8972C46.8672 16.5046 46.2549 15.8093 45.0298 15.8093C44.688 15.8135 44.356 15.9121 44.0684 16.0964C43.7505 16.2952 43.4673 16.5437 43.229 16.8325C43.1221 16.5195 42.9116 16.2534 42.6343 16.0769C42.3184 15.9019 41.9609 15.8164 41.6016 15.8313C41.0708 15.8345 40.5581 16.0125 40.1392 16.3374C40.0469 16.4299 38.3271 17.7732 38.3271 19.1748L38.3271 21.3032C38.3271 21.3689 38.2925 21.6279 38.582 21.6279L39.6606 21.6279C39.9961 21.6279 39.9648 21.4065 39.9648 21.3154L39.9648 17.8691C40.1455 17.6235 40.5137 17.0417 41.123 17.0417C41.3213 17.0239 41.5151 17.115 41.627 17.2795C41.749 17.5247 41.8027 17.7986 41.7817 18.0723L41.7817 21.3093C41.7817 21.3752 41.7476 21.634 42.0366 21.634L43.104 21.634C43.438 21.634 43.4067 21.4126 43.4067 21.3196L43.4067 17.8567C43.6016 17.6133 43.979 17.0295 44.5659 17.0295C44.7671 17.0132 44.9609 17.1033 45.0786 17.2676C45.2026 17.5129 45.2573 17.7866 45.2354 18.0605L45.2354 21.2974C45.2354 21.3633 45.2007 21.6218 45.4902 21.6218L46.5693 21.6218C46.9077 21.6055 46.8672 21.387 46.8672 21.2974ZM50.3203 16.9399C49.6646 16.9399 49.2222 17.3975 49.125 18.1501L51.4707 18.1501C51.4111 17.4919 51.0566 16.9399 50.3203 16.9399Z" fill="#FFFFFF" fill-opacity="1.000000" fill-rule="evenodd"/>
	</g>
</svg>
